<?xml version="1.0" encoding="utf-8"?>
<!-- Generator: Adobe Illustrator 28.1.0, SVG Export Plug-In . SVG Version: 6.00 Build 0)  -->
<svg version="1.1" id="Layer_1" xmlns="http://www.w3.org/2000/svg" xmlns:xlink="http://www.w3.org/1999/xlink" x="0px" y="0px"
	 viewBox="0 0 24 24" style="enable-background:new 0 0 24 24;" xml:space="preserve">
<style type="text/css">
	.st0{fill:#211F20;}
</style>
<g>
	<path class="st0" d="M11.4,12.7l-0.3,0.7h0.6L11.4,12.7z M11.4,12.7l-0.3,0.7h0.6L11.4,12.7z M23.9,13.3c0,0-1.4,0-1.7-0.5
		c-0.4-0.5,0.6-0.8,0.6-0.8c-1.2-0.8-5.3-1-5.3-1c-3.7-2.4-5.6-2.3-5.6-2.3V7.4c0-0.1-0.1-0.1-0.1-0.1h-0.9c-0.1,0-0.1,0.1-0.1,0.1
		v1.3C7.6,8.2,3.7,10,3,10.3c-0.7,0.2-2.1,0.3-2.5,0.4c-0.1,0-0.1,0.1-0.1,0.1l-0.1,0.7l1.5,0l-0.1,0.3l-1.3,0c0,0-0.1,0-0.1,0.1
		l0,0.2c0,0,0,0.1,0.1,0.1h1.1c-0.4,0.7-1.2,0.6-1.2,0.6L0,14.3c0,0.1,0.1,0.2,0.1,0.2l2.8,0.6c0-0.5,0.6-2.3,2.4-2.1
		c1.8,0.2,1.8,2.2,1.8,2.2h10.6c-0.1-1,1-2.6,2.7-2.2c1.5,0.4,1.4,2.3,1.4,2.3l2-0.3C24.1,14.9,23.9,13.3,23.9,13.3z M5.9,10.8
		C5.9,10.8,5.9,10.7,5.9,10.8l-0.2-0.3c0,0,0-0.1,0-0.1c1.9-0.8,3.9-0.9,4.4-0.9c0.1,0,0.1,0,0.1,0.1v1.3c0,0.1,0,0.1-0.1,0.1
		L5.9,10.8z M10.3,12.7H9.7v1.6H9.2v-1.6H8.6v-0.4h1.7V12.7z M12,14.2l-0.2-0.4h-0.9l-0.2,0.4h-0.5l0.9-1.9h0.4l0.9,1.9H12z
		 M13.9,14.2l-0.5-0.7L13,14.2h-0.5l0.7-1l-0.7-0.9H13l0.4,0.6l0.4-0.6h0.5l-0.7,0.9l0.7,1H13.9z M15.2,14.2h-0.4v-1.9h0.4V14.2z
		 M15.9,11.1l-5.3-0.2c0,0,0,0,0,0V9.5c0,0,0,0,0,0C13.2,9.3,15.5,10.8,15.9,11.1C16,11.1,15.9,11.1,15.9,11.1z M11.1,13.5h0.6
		l-0.3-0.7L11.1,13.5z M11.4,12.7l-0.3,0.7h0.6L11.4,12.7z M11.4,12.7l-0.3,0.7h0.6L11.4,12.7z"/>
	<path class="st0" d="M5,13.4c-0.9,0-1.7,0.8-1.7,1.7c0,0.9,0.8,1.7,1.7,1.7c0.9,0,1.7-0.8,1.7-1.7C6.7,14.1,5.9,13.4,5,13.4z
		 M5,15.9c-0.5,0-0.9-0.4-0.9-0.9c0-0.5,0.4-0.9,0.9-0.9c0.5,0,0.9,0.4,0.9,0.9C5.9,15.6,5.5,15.9,5,15.9z"/>
	<path class="st0" d="M19.8,13.4c-0.9,0-1.7,0.8-1.7,1.7c0,0.9,0.8,1.7,1.7,1.7c0.9,0,1.7-0.8,1.7-1.7
		C21.5,14.1,20.7,13.4,19.8,13.4z M19.8,15.9c-0.5,0-0.9-0.4-0.9-0.9c0-0.5,0.4-0.9,0.9-0.9s0.9,0.4,0.9,0.9
		C20.6,15.6,20.3,15.9,19.8,15.9z"/>
	<path class="st0" d="M23.1,12.4c0,0-1,0-0.7,0.3c0.3,0.3,1.2,0.2,1.2,0.2l-0.1-0.1C23.5,12.7,23.3,12.6,23.1,12.4L23.1,12.4z"/>
</g>
</svg>
