<?xml version="1.0" encoding="utf-8"?>
<!-- Generator: Adobe Illustrator 27.5.0, SVG Export Plug-In . SVG Version: 6.00 Build 0)  -->
<svg version="1.1" xmlns="http://www.w3.org/2000/svg" xmlns:xlink="http://www.w3.org/1999/xlink" x="0px" y="0px"
	 viewBox="0 0 500 500" style="enable-background:new 0 0 500 500;" xml:space="preserve">
<g id="Background_Complete">
	<g>
		<rect y="382.398" style="fill:#EBEBEB;" width="500" height="0.25"/>
		<rect x="416.779" y="398.494" style="fill:#EBEBEB;" width="33.122" height="0.25"/>
		<rect x="322.527" y="401.208" style="fill:#EBEBEB;" width="8.693" height="0.25"/>
		<rect x="396.586" y="389.208" style="fill:#EBEBEB;" width="19.192" height="0.25"/>
		<rect x="52.459" y="390.888" style="fill:#EBEBEB;" width="43.193" height="0.25"/>
		<rect x="104.556" y="390.888" style="fill:#EBEBEB;" width="6.333" height="0.25"/>
		<rect x="131.471" y="395.111" style="fill:#EBEBEB;" width="93.676" height="0.25"/>
		<path style="fill:#EBEBEB;" d="M237.014,337.8H43.915c-3.147,0-5.708-2.561-5.708-5.708V60.66c0-3.147,2.561-5.708,5.708-5.708
			h193.099c3.146,0,5.707,2.561,5.707,5.708v271.432C242.721,335.239,240.16,337.8,237.014,337.8z M43.915,55.203
			c-3.01,0-5.458,2.448-5.458,5.458v271.432c0,3.01,2.448,5.458,5.458,5.458h193.099c3.009,0,5.457-2.448,5.457-5.458V60.66
			c0-3.009-2.448-5.458-5.457-5.458H43.915z"/>
		<path style="fill:#EBEBEB;" d="M453.31,337.8H260.212c-3.147,0-5.707-2.561-5.707-5.708V60.66c0-3.147,2.561-5.708,5.707-5.708
			H453.31c3.148,0,5.708,2.561,5.708,5.708v271.432C459.019,335.239,456.458,337.8,453.31,337.8z M260.212,55.203
			c-3.009,0-5.457,2.448-5.457,5.458v271.432c0,3.01,2.448,5.458,5.457,5.458H453.31c3.01,0,5.458-2.448,5.458-5.458V60.66
			c0-3.009-2.448-5.458-5.458-5.458H260.212z"/>
	</g>
	<g>
		<g>
			<g>
				<g>
					<polygon style="fill:#F0F0F0;" points="48.801,382.398 257.622,382.398 120.088,297.789 					"/>
					<polygon style="fill:#FAFAFA;" points="142.898,311.821 120.088,297.789 103.939,316.956 116.236,313.356 123.418,321.302 
						129.176,313.356 135.425,316.561 137.697,313.356 146.501,317.13 					"/>
				</g>
				<g>
					<polygon style="fill:#E6E6E6;" points="88.941,382.398 351.026,382.398 229.716,244.314 					"/>
					<polygon style="fill:#F0F0F0;" points="194.46,278.897 229.716,244.314 260.098,278.897 245.715,271.494 240.13,283.377 
						228.769,274.97 222.048,282.144 217.078,277.309 206.995,285.178 204.865,274.939 					"/>
					<polygon style="fill:#F0F0F0;" points="250.165,281.67 260.673,295.359 260.673,285.178 					"/>
					<polygon style="fill:#F0F0F0;" points="196.025,294.568 172.131,313.356 179.392,296.807 					"/>
				</g>
				<g>
					<polygon style="fill:#F5F5F5;" points="186.754,382.398 426.345,382.398 315.203,278.897 					"/>
					<polygon style="fill:#FAFAFA;" points="286.045,302.392 315.203,278.897 346.384,307.934 328.836,300.254 326.848,311.821 
						316.215,303.288 301.571,309.356 301.287,301.012 292.482,304.805 292.766,300.633 					"/>
					<polygon style="fill:#FAFAFA;" points="333.162,306.711 339.161,319.73 343.559,313.84 					"/>
					<polygon style="fill:#FAFAFA;" points="262.212,331.932 279.977,325.233 270.418,323.625 					"/>
				</g>
				<g>
					<polygon style="fill:#F5F5F5;" points="306.55,382.398 444.556,382.398 386.774,311.821 					"/>
					<polygon style="fill:#FAFAFA;" points="371.595,325.174 386.774,311.821 405.365,334.528 386.774,324.241 385.07,330.647 
						380.384,326.043 					"/>
				</g>
			</g>
		</g>
		<g>
			<circle style="fill:#FAFAFA;" cx="311.257" cy="158.713" r="51.899"/>
			<g>
				<path style="fill:#F5F5F5;" d="M114.228,212.805c9.677-10.431,22.923-17.857,33.242-17.857c6.472,0,10.602,2.923,12.075,7.682
					c4.497-2.713,9.15-4.339,13.15-4.339c7.04,0,10.049,5.024,8.217,12.112c3.947-1.58,7.903-2.548,11.535-2.704
					c7.163-0.32,11.477,2.567,12.315,7.261c1.661-0.785,3.372-1.279,4.923-1.352c4.126-0.183,5.499,2.731,3.083,6.503
					c-0.154,0.238-0.314,0.466-0.474,0.694h-8.064h-6.416h-22.287h-10.967h-8.528h-13.135h-2.384h-32.582h-9.609
					C99.65,217.109,109.117,212.991,114.228,212.805z"/>
				<path style="fill:#FAFAFA;" d="M380.649,213.044c4.489-4.839,10.635-8.285,15.422-8.285c3.002,0,4.918,1.356,5.602,3.564
					c2.087-1.258,4.245-2.013,6.101-2.013c3.266,0,4.662,2.331,3.812,5.619c1.831-0.733,3.666-1.182,5.351-1.254
					c3.323-0.148,5.325,1.191,5.714,3.369c0.771-0.365,1.565-0.593,2.284-0.627c1.914-0.085,2.551,1.267,1.43,3.017
					c-0.071,0.11-0.146,0.216-0.22,0.322h-3.741h-2.976h-10.34h-5.088h-3.956h-6.094h-1.106h-15.116h-4.458
					C373.886,215.04,378.278,213.13,380.649,213.044z"/>
				<path style="fill:#F0F0F0;" d="M329.098,119.719c10.856-11.702,25.715-20.032,37.291-20.032c7.26,0,11.893,3.279,13.546,8.617
					c5.045-3.043,10.265-4.867,14.752-4.867c7.897,0,11.273,5.635,9.218,13.587c4.428-1.773,8.865-2.859,12.94-3.033
					c8.035-0.359,12.875,2.879,13.815,8.146c1.863-0.881,3.783-1.435,5.523-1.516c4.629-0.205,6.168,3.064,3.458,7.296
					c-0.172,0.266-0.352,0.523-0.531,0.779h-9.046h-7.197h-25.001h-12.303h-9.566h-14.735h-2.674h-36.551h-10.779
					C312.744,124.547,323.364,119.928,329.098,119.719z"/>
				<path style="fill:#F5F5F5;" d="M71.956,132.705c0.312-0.033,0.606-0.05,0.882-0.05c4.058-3.236,8.277-5.301,11.409-5.301
					c2.26,0,3.595,1.079,3.99,2.904c7.56-6.28,15.588-10.362,21.452-10.362c4.73,0,7.181,2.655,7.326,6.986
					c3.802-2.464,7.512-3.941,10.44-3.941c5.145,0,6.374,4.563,3.657,11.001c0,0-0.009,0.008,0.007,0
					c3.179-1.435,6.264-2.323,8.953-2.464c5.285-0.29,7.874,2.331,7.573,6.604c1.372-0.722,2.716-1.17,3.862-1.228
					c2.889-0.158,3.44,2.199,1.384,5.351h-6.249h-4.236h-16.291h-7.629h-6.794h-9.649H83.812h-7.106h-2.529H64.062h-9.075
					C59.056,137.426,66.459,133.245,71.956,132.705z"/>
			</g>
		</g>
	</g>
</g>
<g id="Background_Simple" style="display:none;">
	<g style="display:inline;">
		<path style="fill:#407BFF;" d="M336.722,181.1c-64.103,29.307-86.409,215.623-176.964,170.175
			c-68.205-34.231-48.247-221.147,15.29-241.75c28.376-9.201,42.248,15.922,70.905,8.257c42.46-11.356,55.577-71.28,109.383-52.81
			c28.873,9.912,76.077,62.516,57.482,91.216C401.952,172.959,347.654,176.102,336.722,181.1z"/>
		<path style="opacity:0.9;fill:#FFFFFF;" d="M336.722,181.1c-64.103,29.307-86.409,215.623-176.964,170.175
			c-68.205-34.231-48.247-221.147,15.29-241.75c28.376-9.201,42.248,15.922,70.905,8.257c42.46-11.356,55.577-71.28,109.383-52.81
			c28.873,9.912,76.077,62.516,57.482,91.216C401.952,172.959,347.654,176.102,336.722,181.1z"/>
	</g>
</g>
<g id="Shadow_1_">
	<ellipse id="_x3C_Path_x3E__155_" style="fill:#F5F5F5;" cx="250" cy="416.238" rx="193.889" ry="11.323"/>
</g>
<g id="Character_1_">
	<g>
		<g>
			<path style="fill:#407BFF;" d="M281.538,230.097h-36.62c-7.203,0-12.816-5.893-12.475-13.096l3.219-67.888
				c0.342-7.203,6.514-13.096,13.717-13.096h36.62c7.203,0,12.816,5.893,12.475,13.096l-3.219,67.888
				C294.913,224.204,288.74,230.097,281.538,230.097z"/>
			<path style="opacity:0.3;" d="M281.538,230.097h-36.62c-7.203,0-12.816-5.893-12.475-13.096l3.219-67.888
				c0.342-7.203,6.514-13.096,13.717-13.096h36.62c7.203,0,12.816,5.893,12.475,13.096l-3.219,67.888
				C294.913,224.204,288.74,230.097,281.538,230.097z"/>
		</g>
		<path style="fill:#407BFF;" d="M244.793,124.035h44.363c3.794,0,6.898,3.104,6.898,6.898l0,0c0,3.794-3.104,6.898-6.898,6.898
			h-44.363c-3.794,0-6.898-3.104-6.898-6.898l0,0C237.895,127.139,240.999,124.035,244.793,124.035z"/>
		<path style="fill:#263238;" d="M251.15,83.304c-22.311,16.176-21.513,31.377-14.733,38.427
			c6.239,6.487,19.872,11.814,35.723,5.851c12.732-4.79,3.14-25.422,3.019-30.915C275.038,91.174,251.15,83.304,251.15,83.304z"/>
		<path style="fill:#263238;" d="M244.511,88.718c-10.597,4.895-16.052,18.56-15.951,24.535c3.276-8.97,9.443-18.901,17.069-21.654
			C245.068,90.298,244.511,88.718,244.511,88.718z"/>
		<g>
			<path style="fill:#407BFF;" d="M240.419,84.444c-1.108,3.168,6.76,6.669,11.322,8.033c4.562,1.364,4.872-6.986,4.872-6.986
				S241.495,81.367,240.419,84.444z"/>
			<path style="opacity:0.3;" d="M240.419,84.444c-1.108,3.168,6.76,6.669,11.322,8.033c4.562,1.364,4.872-6.986,4.872-6.986
				S241.495,81.367,240.419,84.444z"/>
		</g>
		<g>
			<path style="fill:#407BFF;" d="M212.56,396.397c0.683,2.146-0.445,8.833-2.319,13.789l11.887-12.992
				C222.128,397.194,220.109,394.074,212.56,396.397z"/>
		</g>
		<g>
			<path style="fill:#407BFF;" d="M273.104,397.652c0.683,2.146,1.564,8.494-0.31,13.451c9.575,1.532,9.056-5.044,9.878-12.654
				C282.673,398.449,280.654,395.328,273.104,397.652z"/>
		</g>
		<path style="fill:#FF8B7B;" d="M222.063,327.338l20.959,4.266c-3.416,34.838-19.453,75.452-19.453,75.452h-9.23
			C214.339,407.056,221.734,333.68,222.063,327.338z"/>
		<path style="fill:#E6E6E6;" d="M214.748,398.501c1.674-8.146,2.252-18.613,2.192-19.765c-0.061-1.152-1.395-4.365,2.546-2.971
			c3.941,1.395,15.46,1.334,15.4,3.213c-0.061,1.88-1.576,1.637-2.425,4.365c-0.849,2.728-6.427,21.887-8.185,25.04
			C217.425,411.051,212.92,407.049,214.748,398.501z"/>
		<path style="opacity:0.2;" d="M222.058,327.336c-0.055,1.091-0.327,4.18-0.72,8.534c4.965,0.633,16.228-0.415,21.542-2.903
			c0.055-0.458,0.098-0.906,0.142-1.364L222.058,327.336z"/>
		<path style="fill:#FF8B7B;" d="M272.309,330.582l22.069,1.348c3.413,34.838-7.798,75.126-7.798,75.126h-9.23
			C277.35,407.056,277.35,362.669,272.309,330.582z"/>
		<path style="fill:#E6E6E6;" d="M276.653,400.505c0.412-8.306-0.613-18.739-0.849-19.868s-2.044-4.102,2.064-3.324
			c4.107,0.777,15.483-1.04,15.71,0.827c0.227,1.867-1.308,1.858-1.731,4.684c-0.423,2.826-3.013,22.611-4.27,25.995
			C281.212,412.5,276.15,409.233,276.653,400.505z"/>
		<path style="opacity:0.2;" d="M294.379,331.93l-22.066-1.353c0.458,2.903,0.873,5.904,1.244,8.96
			c6.111-0.382,15.027-2.062,21.084-4.496C294.565,334.004,294.478,332.967,294.379,331.93z"/>
		<g>
			<path style="fill:#407BFF;" d="M272.128,412.29c4.957-3.646,2.088-14.388,2.088-14.388s3.589-1.074,8.516,0.085
				C285.672,404.027,281.694,414.045,272.128,412.29z"/>
			<path style="opacity:0.2;" d="M272.128,412.29c4.957-3.646,2.088-14.388,2.088-14.388s3.589-1.074,8.516,0.085
				C285.672,404.027,281.694,414.045,272.128,412.29z"/>
			<path style="fill:#407BFF;" d="M289.249,414.567c0,0-21.151,0-25.395,0c-4.244,0-0.081-7.033,8.262-4.547
				c8.343,2.486,9.771-6.123,8.19-12.793c7.452-1.758,10.979,0.819,10.979,0.819C289.599,404.329,288.492,410.165,289.249,414.567z"
				/>
			<g>
				<path style="fill:#407BFF;" d="M288.777,416.416h-25.794c-0.41,0-0.745-0.335-0.745-0.745v-1.182
					c0-0.41,0.335-0.745,0.745-0.745h25.794c0.41,0,0.745,0.335,0.745,0.745v1.182C289.522,416.081,289.187,416.416,288.777,416.416
					z"/>
				<path style="opacity:0.5;fill:#FFFFFF;" d="M288.777,416.416h-25.794c-0.41,0-0.745-0.335-0.745-0.745v-1.182
					c0-0.41,0.335-0.745,0.745-0.745h25.794c0.41,0,0.745,0.335,0.745,0.745v1.182C289.522,416.081,289.187,416.416,288.777,416.416
					z"/>
			</g>
		</g>
		<g>
			<path style="fill:#407BFF;" d="M208.553,410.63c5.47-3.127,5.408-13.827,5.408-13.827s2.033-0.983,6.972,0.668
				C223.322,403.777,218.193,413.342,208.553,410.63z"/>
			<path style="opacity:0.2;" d="M208.553,410.63c5.47-3.127,5.408-13.827,5.408-13.827s2.033-0.983,6.972,0.668
				C223.322,403.777,218.193,413.342,208.553,410.63z"/>
			<path style="fill:#407BFF;" d="M225.897,414.624c0,0-21.72-2.135-26.078-2.564c-4.358-0.428,0.65-7.005,8.958-3.69
				c8.308,3.315,12.139-4.963,11.21-11.757c7.836-0.997,9.723,1.78,9.723,1.78C227.324,404.473,225.579,410.168,225.897,414.624z"/>
			<g>
				<path style="fill:#407BFF;" d="M225.219,416.416l-26.488-2.604c-0.421-0.041-0.73-0.409-0.688-0.817l0.123-1.176
					c0.043-0.408,0.422-0.708,0.843-0.666l26.488,2.604c0.421,0.041,0.73,0.409,0.688,0.817l-0.123,1.176
					C226.02,416.158,225.64,416.458,225.219,416.416z"/>
				<path style="opacity:0.5;fill:#FFFFFF;" d="M225.219,416.416l-26.488-2.604c-0.421-0.041-0.73-0.409-0.688-0.817l0.123-1.176
					c0.043-0.408,0.422-0.708,0.843-0.666l26.488,2.604c0.421,0.041,0.73,0.409,0.688,0.817l-0.123,1.176
					C226.02,416.158,225.64,416.458,225.219,416.416z"/>
			</g>
		</g>
		<path style="fill:#407BFF;" d="M255.638,263.319c-2.848,9.353-6.417,19.633-10.913,30.721c0.851,13.772,0.175,26.824-1.321,38.676
			c-6.744,2.434-23.751,1.033-24.54-1.069c0.993-13.609,2.019-27.098,2.881-37.607c-0.644-36.025,8.487-92.762,8.487-92.762h36.308
			C266.54,201.278,267.446,224.381,255.638,263.319z"/>
		<path style="opacity:0.2;" d="M260.077,247.091c-1.801,7.389-4.114,15.584-7.072,24.5c-0.862-17.963-5.718-42.005-5.882-42.824
			L260.077,247.091z"/>
		<path style="fill:#407BFF;" d="M294.963,335.15c-10.649,2.237-25.165,1.329-26.019-0.946c-0.466-12.846-3.201-25.617-5.668-37.447
			c-1.921-9.178-4.682-21.117-7.639-33.438c-7.192-29.913-15.518-62.041-15.518-62.041h31.986c0,0,20.691,18.716,14.154,96.941
			C292.033,308.391,294.276,321.726,294.963,335.15z"/>
		<path style="fill:#FF8B7B;" d="M244.219,149.337c-0.219,0.874-0.398,1.517-0.601,2.251c-0.202,0.7-0.406,1.407-0.63,2.092
			c-0.432,1.384-0.89,2.747-1.385,4.097c-0.959,2.71-2.065,5.357-3.228,7.985c-2.363,5.239-5.106,10.336-8.319,15.208
			c-0.829,1.209-1.659,2.41-2.528,3.593l-1.345,1.753c-0.504,0.617-0.684,0.992-1.814,2.196c-0.975,0.999-2.219,1.963-3.659,2.608
			c-1.43,0.656-2.977,0.995-4.368,1.052c-2.827,0.11-4.968-0.606-6.728-1.403c-3.481-1.649-5.836-3.746-7.998-5.909
			c-1.063-1.092-2.048-2.212-2.96-3.379c-0.934-1.175-1.735-2.326-2.589-3.676c-1.134-1.792-0.6-4.165,1.192-5.299
			c1.314-0.831,2.939-0.767,4.16,0.033l0.288,0.19l3.159,2.075c1.073,0.679,2.138,1.337,3.198,1.931
			c2.089,1.179,4.27,2.183,5.867,2.478c0.772,0.131,1.341,0.063,1.228-0.078c-0.04-0.054-0.257-0.08-0.475-0.032
			c-0.22,0.051-0.392,0.144-0.454,0.145c-0.213,0.203,0.325-0.581,0.619-1.058l1.002-1.569l1.902-3.227
			c2.455-4.375,4.608-8.984,6.555-13.693c0.972-2.356,1.887-4.743,2.742-7.143c0.423-1.201,0.843-2.403,1.239-3.601l0.584-1.79
			l0.514-1.66l0.09-0.292c1.25-4.04,5.538-6.301,9.578-5.052C242.955,141.367,245.192,145.425,244.219,149.337z"/>
		<path style="fill:#263238;" d="M237.074,136.018c-7.822,2.224-11.431,9.358-17.986,24.182c2.299,5.097,15.119,9.006,15.119,9.006
			S251.133,145.103,237.074,136.018z"/>
		<path style="fill:#263238;" d="M226.343,149.315c-0.131,4.006-0.306,9.075,0.284,18.636c0.335,8.093,4.346,20.303,4.272,33.628
			c4.15,3.02,27.635,2.382,41.974,0.529c-0.87-11.477-0.219-29.387,7.557-55.209c1.803-5.987-2.218-11.736-8.638-12.349
			c-1.716-0.164-3.536-0.3-5.404-0.385c-7.262-0.33-13.215-0.549-19.665,0.001c-2.138,0.182-4.353,0.435-6.471,0.712
			C232.611,135.875,226.579,142.137,226.343,149.315z"/>
		<path style="fill:#407BFF;" d="M258.91,152.612c-6.427,2.446-18.189,2.101-26.434-0.93v2.061
			c13.217,6.427,26.434,1.152,26.434,1.152S261.275,154.652,258.91,152.612z"/>
		<path style="fill:#407BFF;" d="M238.882,152.262c-1.103,0.303-1.924,4.593,0.118,5.203c2.042,0.61,7.825,1.571,11.314,0.446
			c1.907-0.615,2.108-4.458,0.508-5.056C247.823,151.736,240.855,151.721,238.882,152.262z"/>
		<path style="fill:#FF8B7B;" d="M265.01,112.043c-1.712,6.327-3.814,17.921,0.298,22.143c0,0-2.64,6.769-17.675,5.855
			c-10.974-0.667-1.99-5.854-1.99-5.854c7.181-1.685,7.389-6.92,6.527-11.836L265.01,112.043z"/>
		<path style="opacity:0.2;" d="M259.775,116.248l-7.599,6.096c0.208,1.164,0.35,2.344,0.346,3.491
			c2.725-0.39,6.648-3.348,7.144-6.171C259.914,118.257,259.956,116.904,259.775,116.248z"/>
		<path style="fill:#FF8B7B;" d="M270.413,99.343c-1.92,10.217-2.516,14.57-8.346,19.471c-8.769,7.371-20.818,3.472-21.969-6.944
			c-1.037-9.375,2.277-24.508,12.805-27.882C263.275,80.664,272.333,89.126,270.413,99.343z"/>
		<path style="fill:#263238;" d="M262.669,94.812c-3.213,4.244-1.758,10.627,4.79,11.195c6.548,0.567,7.36-7.375,6.317-10.225
			C272.734,92.932,262.669,94.812,262.669,94.812z"/>
		<path style="fill:#263238;" d="M252.176,83.427c-8.377,3.639-3.694,6.913-1.238,8.231c0.137-1.364,0.803-2.774,0.803-2.774
			s4.656,7.28,12.565,8.094c9.985,1.027,8.594-2.592,8.594-2.592S267.647,79.106,252.176,83.427z"/>
		<path style="fill:#263238;" d="M253.034,82.777c-4.642,0.576-11.978,2.307-12.615,7.413c2.304-1.29,7.958-1.684,7.958-1.684
			L253.034,82.777z"/>
		<path style="fill:#263238;" d="M267.547,100.921c-2.6,1.415-6.519,4.135-5.709,7.29c1.058-1.294,4.296-2.837,4.296-2.837
			L267.547,100.921z"/>
		<path style="fill:#263238;" d="M254.229,101.045c-0.124,0.865-0.673,1.532-1.227,1.491c-0.554-0.041-0.902-0.775-0.778-1.639
			c0.124-0.864,0.673-1.532,1.227-1.491C254.005,99.447,254.353,100.181,254.229,101.045z"/>
		<path style="fill:#263238;" d="M243.794,100.43c-0.124,0.864-0.673,1.532-1.227,1.491c-0.553-0.041-0.902-0.775-0.778-1.639
			c0.124-0.864,0.673-1.532,1.227-1.491C243.569,98.832,243.917,99.565,243.794,100.43z"/>
		<path style="fill:#263238;" d="M243.253,98.857l-1.948-0.748C241.305,98.108,242.116,99.807,243.253,98.857z"/>
		<path style="fill:#FF5652;" d="M246.493,102.062c0,0-1.971,3.616-3.81,5.295c0.965,1.148,2.936,0.801,2.936,0.801L246.493,102.062
			z"/>
		<path style="fill:#263238;" d="M250.029,111.711c-0.45,0.047-0.93,0.057-1.438,0.02c-0.137-0.01-0.232-0.132-0.212-0.273
			c0.02-0.139,0.144-0.244,0.286-0.235c3.713,0.276,5.832-2.248,5.853-2.273c0.092-0.113,0.251-0.134,0.355-0.049
			c0.104,0.085,0.115,0.245,0.023,0.356C254.814,109.356,253.109,111.39,250.029,111.711z"/>
		<path style="fill:#FF8B7B;" d="M271.363,108.529c-1.212,2.004-3.027,3.153-4.636,3.444c-2.42,0.438-3.23-2.362-2.222-5.012
			c0.907-2.385,3.26-5.487,5.528-4.711C272.267,103.016,272.748,106.238,271.363,108.529z"/>
		<path style="fill:#263238;" d="M256.936,96.662c-0.132-0.018-0.252-0.088-0.328-0.204c-1.189-1.819-3.057-1.751-3.079-1.75
			c-0.277,0.011-0.502-0.201-0.495-0.479c0.007-0.278,0.24-0.513,0.521-0.527c0.098-0.004,2.442-0.092,3.918,2.167
			c0.147,0.225,0.073,0.54-0.166,0.703C257.192,96.649,257.06,96.678,256.936,96.662z"/>
		<path style="fill:#263238;" d="M241.811,93.707c-0.126,0.009-0.251-0.027-0.349-0.113c-0.202-0.178-0.21-0.497-0.017-0.713
			c1.928-2.165,4.226-1.938,4.323-1.926c0.274,0.031,0.456,0.28,0.404,0.559c-0.051,0.278-0.314,0.478-0.588,0.449
			c-0.09-0.01-1.876-0.161-3.408,1.562C242.077,93.634,241.944,93.697,241.811,93.707z"/>
		<path style="fill:#263238;" d="M253.689,99.472l-1.948-0.748C251.741,98.724,252.552,100.422,253.689,99.472z"/>
		<path style="fill:#FF8B7B;" d="M193.835,164.263l3.195,0.486c1.201,0.183,2.24,0.935,2.789,2.019l2.564,5.067
			c1.025,2.026,1.006,4.422-0.052,6.431l-0.655,1.244c-5.353-0.443-10.812-4.867-10.812-4.867l-1.696-1.088
			c-1.51-0.97-1.967-2.852-1.049-4.323l2.113-3.388C190.962,164.673,192.396,164.044,193.835,164.263z"/>
		<path style="fill:#263238;" d="M230.152,204.369c14.288,1.624,29.195,1.536,43.483-0.089c0.633-0.07,1.014-0.77,0.754-1.381
			c-0.354-0.833-0.706-1.667-1.054-2.501c-0.163-0.389-0.539-0.623-0.934-0.578c-13.735,1.504-28.078,1.563-41.808,0.001
			c-0.503-0.061-0.956,0.335-1.012,0.873c-0.087,0.865-0.174,1.728-0.26,2.593C229.267,203.825,229.639,204.309,230.152,204.369z"/>
		<path style="fill:#407BFF;" d="M230.173,193.404c14.808,1.586,29.09,1.667,43.265,0.051c0.628-0.07,0.878-0.76,0.496-1.362
			c-0.522-0.821,0.358-1.826-0.157-2.649c-0.241-0.383-0.668-0.614-1.06-0.569c-13.638,1.496-28.752,1.57-42.983,0.044
			c-0.522-0.059-0.905,0.331-0.856,0.862c0.08,0.853,0.161,1.704,0.242,2.556C229.169,192.868,229.64,193.345,230.173,193.404z"/>
		<g>
			<path style="fill:#FFFFFF;" d="M240.354,209.971c-0.169,0-0.343-0.009-0.524-0.028c-1.358-0.139-2.105-0.992-2.161-2.465
				c-0.194-5.101,7.829-16.325,13.475-17.342c0.116-0.021,0.233,0.035,0.288,0.139c0.056,0.104,0.04,0.232-0.041,0.317
				c-3.431,3.626-4.73,8.263-5.773,11.99C244.467,206.686,243.547,209.971,240.354,209.971z M250.374,190.908
				c-5.27,1.875-12.333,11.992-12.16,16.55c0.045,1.197,0.592,1.832,1.671,1.943c3.159,0.324,4.021-2.733,5.206-6.965
				C246.086,198.882,247.311,194.512,250.374,190.908z"/>
			<polygon style="fill:#407BFF;" points="319.418,407.056 316.981,407.794 256.613,211.663 261.139,210.294 			"/>
			<polygon style="opacity:0.7;fill:#FFFFFF;" points="319.418,407.056 316.981,407.794 256.613,211.663 261.139,210.294 			"/>
			<g>
				<path style="fill:#407BFF;" d="M256.467,190.149l-0.155-0.511c-0.173-0.57-0.78-0.895-1.35-0.723l-5.036,1.524
					c-0.57,0.173-0.895,0.78-0.723,1.35l0.155,0.511c0.172,0.57,0.78,0.895,1.35,0.723l0.188-0.057
					c0.005,0.02,0.005,0.039,0.011,0.058l5.396,17.828l-0.182,0.055c-0.57,0.173-0.895,0.78-0.723,1.35l0.155,0.511
					c0.173,0.57,0.78,0.895,1.35,0.723l5.036-1.524c0.57-0.173,0.895-0.78,0.723-1.35l-0.155-0.511
					c-0.173-0.57-0.78-0.895-1.35-0.723l-0.211,0.064l-5.396-17.828c-0.006-0.019-0.016-0.036-0.023-0.055l0.217-0.066
					C256.314,191.327,256.639,190.719,256.467,190.149z"/>
				<path style="opacity:0.3;" d="M256.467,190.149l-0.155-0.511c-0.173-0.57-0.78-0.895-1.35-0.723l-5.036,1.524
					c-0.57,0.173-0.895,0.78-0.723,1.35l0.155,0.511c0.172,0.57,0.78,0.895,1.35,0.723l0.188-0.057
					c0.005,0.02,0.005,0.039,0.011,0.058l5.396,17.828l-0.182,0.055c-0.57,0.173-0.895,0.78-0.723,1.35l0.155,0.511
					c0.173,0.57,0.78,0.895,1.35,0.723l5.036-1.524c0.57-0.173,0.895-0.78,0.723-1.35l-0.155-0.511
					c-0.173-0.57-0.78-0.895-1.35-0.723l-0.211,0.064l-5.396-17.828c-0.006-0.019-0.016-0.036-0.023-0.055l0.217-0.066
					C256.314,191.327,256.639,190.719,256.467,190.149z"/>
			</g>
		</g>
		<g>
			<path style="fill:#E0E0E0;" d="M179.848,174.879c-0.58,0-1.191-0.154-1.846-0.492c-1.213-0.626-1.597-1.692-1.111-3.084
				c1.684-4.819,13.256-12.335,18.881-11.218c0.115,0.023,0.203,0.117,0.218,0.234c0.014,0.117-0.048,0.23-0.155,0.28
				c-4.518,2.121-7.422,5.963-9.755,9.05C183.922,172.503,182.126,174.879,179.848,174.879z M194.552,160.519
				c-5.636,0-15.661,6.715-17.146,10.965c-0.395,1.13-0.118,1.921,0.846,2.419c2.826,1.458,4.741-1.075,7.392-4.581
				c2.225-2.944,4.961-6.564,9.13-8.799C194.7,160.52,194.626,160.519,194.552,160.519z"/>
			<polygon style="fill:#407BFF;" points="180.049,386.951 177.511,386.747 192.996,182.122 197.71,182.5 			"/>
			<polygon style="opacity:0.7;fill:#FFFFFF;" points="180.049,386.951 177.511,386.747 192.996,182.122 197.71,182.5 			"/>
			<g>
				<path style="fill:#407BFF;" d="M200.722,162.042l0.043-0.532c0.048-0.594-0.399-1.118-0.993-1.166l-5.244-0.422
					c-0.594-0.048-1.118,0.399-1.166,0.993l-0.043,0.532c-0.048,0.593,0.399,1.118,0.993,1.166l0.196,0.016
					c-0.002,0.02-0.009,0.038-0.011,0.058l-1.492,18.567l-0.19-0.015c-0.594-0.048-1.118,0.399-1.166,0.993l-0.043,0.532
					c-0.048,0.594,0.399,1.118,0.993,1.166l5.244,0.422c0.594,0.048,1.118-0.399,1.166-0.993l0.043-0.532
					c0.048-0.594-0.399-1.118-0.993-1.166l-0.22-0.018l1.492-18.567c0.002-0.02-0.002-0.039-0.001-0.06l0.226,0.018
					C200.15,163.082,200.675,162.635,200.722,162.042z"/>
				<path style="opacity:0.3;" d="M200.722,162.042l0.043-0.532c0.048-0.594-0.399-1.118-0.993-1.166l-5.244-0.422
					c-0.594-0.048-1.118,0.399-1.166,0.993l-0.043,0.532c-0.048,0.593,0.399,1.118,0.993,1.166l0.196,0.016
					c-0.002,0.02-0.009,0.038-0.011,0.058l-1.492,18.567l-0.19-0.015c-0.594-0.048-1.118,0.399-1.166,0.993l-0.043,0.532
					c-0.048,0.594,0.399,1.118,0.993,1.166l5.244,0.422c0.594,0.048,1.118-0.399,1.166-0.993l0.043-0.532
					c0.048-0.594-0.399-1.118-0.993-1.166l-0.22-0.018l1.492-18.567c0.002-0.02-0.002-0.039-0.001-0.06l0.226,0.018
					C200.15,163.082,200.675,162.635,200.722,162.042z"/>
			</g>
			<path style="fill:#FF8B7B;" d="M203.139,174.205c0.525-3.836-2.584-7.049-3.262-10.083c-0.114-0.508-0.9-0.546-1.229-0.143
				c-0.633,0.776-0.169,3.195,0.147,3.862c0.443,0.934-4.141,4.716,1.663,8.226C202.287,175.469,203.139,174.205,203.139,174.205z"
				/>
		</g>
		<path style="fill:#FF8B7B;" d="M250.459,198.439l1.874-2.632c0.705-0.99,1.845-1.578,3.06-1.579l5.679-0.004
			c2.27-0.001,4.401,1.097,5.717,2.947l0.815,1.145c-2.81,4.578-9.22,7.455-9.22,7.455l-1.736,1.023
			c-1.546,0.91-3.432,0.47-4.332-1.013l-2.071-3.414C249.529,201.188,249.614,199.625,250.459,198.439z"/>
		<path style="fill:#FF8B7B;" d="M284.595,145.747c0.388,0.843,0.652,1.446,0.945,2.144c0.286,0.676,0.539,1.352,0.798,2.025
			c0.518,1.345,0.958,2.706,1.401,4.066c0.846,2.729,1.574,5.497,2.13,8.317c0.295,1.404,0.527,2.83,0.757,4.254
			c0.181,1.439,0.379,2.87,0.488,4.327c0.301,2.892,0.287,5.86,0.192,8.818l-0.015,0.481c-0.01,0.328-0.063,0.67-0.14,0.977
			c-0.601,2.325-1.602,4.047-2.633,5.444c-1.04,1.386-2.124,2.488-3.208,3.479c-1.081,0.996-2.188,1.844-3.299,2.611
			c-1.112,0.771-2.216,1.491-3.34,2.134c-2.249,1.293-4.513,2.398-6.815,3.371c-2.326,0.965-4.586,1.802-7.091,2.497
			c-2.046,0.568-4.164-0.63-4.732-2.676c-0.43-1.552,0.155-3.145,1.356-4.072l0.167-0.128c1.735-1.336,3.617-2.728,5.359-4.118
			c1.757-1.398,3.474-2.801,5.047-4.247c1.585-1.414,3.038-2.915,4.147-4.312c0.55-0.695,1.006-1.381,1.276-1.949
			c0.261-0.561,0.337-0.974,0.247-0.95l-0.155,1.457c-0.195-2.326-0.442-4.648-0.866-6.998c-0.42-2.34-0.92-4.686-1.534-7.025
			c-0.623-2.334-1.282-4.672-2.051-6.977c-0.377-1.154-0.784-2.296-1.184-3.431l-0.62-1.678l-0.579-1.517l-0.15-0.394
			c-1.507-3.949,0.472-8.373,4.421-9.88C278.694,140.357,282.919,142.131,284.595,145.747z"/>
		<path style="fill:#263238;" d="M272.196,134.648c7.05,1.089,9.877,3.233,15.638,17.402c-2.615,5.285-14.857,10.339-14.857,10.339
			S264.87,144.037,272.196,134.648z"/>
		<path style="fill:#407BFF;" d="M265.64,133.311c-4.206,0.456-9.235,13.521-7.967,26.555c1.269,13.034,14.114,20.856,16.103,18.431
			c0,0,0.473-1.395,0.352-2.759c-1.546-0.546-7.452-4.82-8.301-13.793c-0.849-8.973,8.506-25.792,7.949-27.098
			C273.219,133.341,268.156,133.038,265.64,133.311z"/>
		<path style="fill:#407BFF;" d="M244.936,133.83c-4.82,0.208-7.811,0.802-8.907,2.188s-12.798,14.861-9.815,34.762
			c0.289,1.925,1.125,7.07,1.824,7.266c0.97,0.273-0.687-11.472,5.803-25.434C240.297,138.722,246.345,134.485,244.936,133.83z"/>
		<path style="fill:#407BFF;" d="M247.694,83.304c9.123,2.282,21.038,9.574,27.98,16.378c1.324-3.619,2.317-12.706-6.543-17.906
			C257.137,74.737,247.694,83.304,247.694,83.304z"/>
		<path style="fill:#407BFF;" d="M268.801,93.942c-8.724-0.464-10.279-3.883-13.507-6.8c-3.228-2.916-9.51-4.638-14.876-2.698
			C240.782,82.14,254.06,79.127,268.801,93.942z"/>
	</g>
</g>
</svg>
